<?xml version="1.0" encoding="UTF-8" standalone="no"?>
<svg xmlns="http://www.w3.org/2000/svg" version="1.0" width="480" height="420" viewBox="-10 -409 480 420">
<title>Equilateral triangle</title>
<!-- Hand drawn for Wikipedia by Saaska -->
<g xml:space="preserve" 
	style="stroke-width:4pt;stroke:black;stroke-linecap:butt;
	stroke-linejoin:round;fill:none;">
<!--sides-->
<polygon points="0,0, 461.88,0 230.94,-400" />
<!--vertices-->
<g style="fill:black">
<circle cx="0" cy="0" r="5" />
<circle cx="461.88" cy="0" r="5" />
<circle cx="230.94" cy="-400" r="5" />
</g>
<!--ticks for equal sides-->
<line x1="230.94" y1="13.316" x2="230.94" y2="-13.316" />
<line x1="127.472" y1="-193.072" x2="103.472" y2="-206.928" />
<line x1="127.472" y1="-193.072" x2="103.472" y2="-206.928" transform="translate(461.88,0) scale(-1,1)" />
<!--arcs for equal angles-->
<path d="M69.28,0 A69.28,69.28 0 0 0 34.64,-60"/> 
<path d="M69.28,0 A69.28,69.28 0 0 0 34.64,-60" transform="translate(461.88,0)   rotate(-120)" /> 
<path d="M69.28,0 A69.28,69.28 0 0 0 34.64,-60" transform="translate(230.94,-400) rotate(120)" /> 
</g>
</svg>